Hanif_Medium_5_0_grf.mot
version=1
nRows=63
nColumns=19
inDegrees=yes
endheader
time	right_ground_force_vx	right_ground_force_vy	right_ground_force_vz	right_ground_force_px	right_ground_force_py	right_ground_force_pz	right_ground_torque_x	right_ground_torque_y	right_ground_torque_z	left_ground_force_vx	left_ground_force_vy	left_ground_force_vz	left_ground_force_px	left_ground_force_py	left_ground_force_pz	left_ground_torque_x	left_ground_torque_y	left_ground_torque_z
0.000000	-1.372440	270.331000	52.929100	0.214479	0.000000	-1.428480	-20.955300	-0.948042	3.899380	-3.012820	294.481000	-52.480900	0.229972	0.000000	-0.978151	22.159900	-1.079380	9.339060
0.005000	-1.424430	273.591000	53.129900	0.214422	0.000000	-1.430570	-20.637900	-0.872867	3.945980	-2.839760	293.392000	-52.690600	0.229978	0.000000	-0.978758	22.253800	-0.984149	9.294500
0.010000	-1.863300	271.259000	53.219800	0.214343	0.000000	-1.428950	-20.900600	-0.971676	3.878000	-2.887920	293.612000	-52.563200	0.230147	0.000000	-0.978600	22.225100	-1.064660	9.364940
0.015000	-1.378040	270.169000	53.132900	0.214590	0.000000	-1.429490	-20.670800	-0.938559	3.930330	-2.957390	295.522000	-52.634800	0.230092	0.000000	-0.978123	22.229600	-1.105640	9.411470
0.020000	-1.771770	272.401000	52.920600	0.214152	0.000000	-1.429720	-20.778000	-0.899310	3.852140	-2.384070	295.086000	-53.002700	0.229934	0.000000	-0.978046	22.167500	-1.016120	9.332750
0.025000	-1.525460	271.463000	52.925000	0.214120	0.000000	-1.429520	-20.761800	-0.998269	3.806970	-2.922860	296.025000	-52.586000	0.229668	0.000000	-0.978253	22.305000	-1.074760	9.289500
0.030000	-1.520100	268.867000	52.720400	0.214462	0.000000	-1.428280	-20.896400	-0.899772	3.884610	-2.749780	295.336000	-52.707300	0.229969	0.000000	-0.978659	22.371000	-1.022600	9.352340
0.035000	-1.876680	271.167000	52.765900	0.214628	0.000000	-1.429350	-20.786300	-0.921327	3.965620	-2.748380	295.575000	-53.082000	0.229903	0.000000	-0.977945	22.178700	-1.084660	9.355360
0.040000	-1.760070	270.079000	52.796300	0.214433	0.000000	-1.429930	-20.545900	-0.905789	3.896040	-2.511540	296.086000	-52.571100	0.229461	0.000000	-0.977706	22.143100	-1.067650	9.220710
0.045000	-1.421550	270.791000	52.817600	0.213968	0.000000	-1.429490	-20.717000	-0.909707	3.770210	-2.513030	295.891000	-52.662200	0.229201	0.000000	-0.977488	22.064800	-1.154040	9.152790
0.050000	-1.535270	269.628000	53.065400	0.214329	0.000000	-1.429450	-20.641300	-0.872957	3.864530	-2.288680	295.972000	-53.017100	0.228847	0.000000	-0.977746	22.144100	-1.060750	9.032430
0.055000	-1.227770	268.371000	52.686900	0.213965	0.000000	-1.429550	-20.516700	-0.857598	3.742230	-2.466490	295.579000	-52.829400	0.229167	0.000000	-0.978627	22.377100	-1.079630	9.123000
0.060000	-1.426260	268.596000	52.616600	0.213549	0.000000	-1.428700	-20.762600	-0.924155	3.619520	-2.488170	294.908000	-52.945200	0.229196	0.000000	-0.978114	22.176000	-1.153130	9.128310
0.065000	-1.554520	269.357000	52.486900	0.214496	0.000000	-1.429460	-20.615400	-0.922651	3.896380	-2.543170	296.050000	-52.939300	0.228470	0.000000	-0.977895	22.196800	-1.127480	8.933790
0.070000	-0.973472	269.758000	53.029800	0.213046	0.000000	-1.429250	-20.704700	-0.787268	3.515190	-2.284340	295.489000	-53.262800	0.228330	0.000000	-0.977613	22.068900	-1.108660	8.873670
0.075000	-1.273540	268.529000	52.810700	0.213157	0.000000	-1.429590	-20.517500	-0.815161	3.528560	-2.626470	294.581000	-53.394300	0.229180	0.000000	-0.979271	22.494100	-1.179170	9.128290
0.080000	-1.080390	269.398000	53.308000	0.213025	0.000000	-1.430170	-20.428600	-0.836032	3.497150	-2.703600	296.814000	-53.761000	0.228384	0.000000	-0.977835	22.238900	-1.201150	8.955310
0.085000	-0.929802	269.702000	52.894200	0.213161	0.000000	-1.430230	-20.436300	-0.795725	3.543800	-2.701860	296.890000	-53.220500	0.228237	0.000000	-0.978083	22.317600	-1.189270	8.902320
0.090000	-0.813950	269.065000	52.679800	0.212255	0.000000	-1.430230	-20.386100	-0.831715	3.273050	-2.367200	298.540000	-53.292800	0.228396	0.000000	-0.976672	22.016400	-1.147610	8.983490
0.095000	-0.913135	267.657000	53.015400	0.212754	0.000000	-1.430230	-20.280400	-0.838492	3.395120	-2.413010	298.315000	-53.257900	0.228832	0.000000	-0.977820	22.343000	-1.149220	9.112660
0.100000	-1.038650	268.897000	52.699500	0.212595	0.000000	-1.430350	-20.343100	-0.789660	3.377520	-2.240520	297.137000	-53.402200	0.228390	0.000000	-0.977889	22.273600	-1.131320	8.941520
0.105000	-1.468790	266.179000	52.876200	0.212516	0.000000	-1.429920	-20.250700	-0.878387	3.310700	-2.584780	298.229000	-53.530900	0.228147	0.000000	-0.976914	22.068300	-1.202580	8.914880
0.110000	-1.101410	265.669000	52.407900	0.212156	0.000000	-1.429500	-20.324400	-0.782700	3.217380	-2.714200	297.804000	-53.444500	0.228400	0.000000	-0.977286	22.148900	-1.165830	8.975290
0.115000	-1.224630	266.788000	52.578000	0.212878	0.000000	-1.429350	-20.447900	-0.877464	3.414570	-2.345630	297.738000	-53.427100	0.228438	0.000000	-0.977596	22.232600	-1.182770	8.983400
0.120000	-1.336680	265.368000	52.099100	0.212057	0.000000	-1.429930	-20.185300	-0.898538	3.166540	-2.952430	295.780000	-53.617100	0.228502	0.000000	-0.977783	22.149500	-1.270790	8.977850
0.125000	-1.622710	263.006000	52.068400	0.212022	0.000000	-1.429090	-20.226400	-0.895221	3.133270	-2.573980	297.318000	-53.278400	0.228745	0.000000	-0.976881	21.991000	-1.146280	9.060290
0.130000	-1.278130	263.633000	51.972700	0.212006	0.000000	-1.430270	-19.965400	-0.840068	3.141770	-2.553530	298.779000	-53.637300	0.228193	0.000000	-0.977440	22.266200	-1.219010	8.948020
0.135000	-1.282650	264.382000	51.974500	0.212582	0.000000	-1.430510	-19.957200	-0.907083	3.295660	-2.557560	297.875000	-53.256200	0.228168	0.000000	-0.977500	22.216600	-1.207170	8.908610
0.140000	-0.434941	263.351000	51.901300	0.212770	0.000000	-1.429760	-20.077300	-0.968133	3.309230	-2.712650	299.059000	-53.384200	0.228656	0.000000	-0.976842	22.110300	-1.245850	9.101060
0.145000	-0.804381	264.791000	51.935000	0.211729	0.000000	-1.430390	-20.019000	-0.871272	3.066160	-2.812370	295.969000	-53.247000	0.228131	0.000000	-0.977749	22.151000	-1.215160	8.851760
0.150000	-0.627006	263.914000	51.845600	0.212483	0.000000	-1.430030	-20.049100	-0.851419	3.263670	-2.624820	297.965000	-52.862000	0.228043	0.000000	-0.977196	22.133100	-1.190760	8.864500
0.155000	-0.689978	265.995000	52.485200	0.211887	0.000000	-1.431640	-19.778100	-0.844929	3.128340	-3.026600	295.536000	-53.101200	0.228448	0.000000	-0.978540	22.355900	-1.306370	8.954790
0.160000	0.065010	264.820000	52.301600	0.211748	0.000000	-1.429760	-20.189400	-0.716243	3.090120	-2.913560	297.757000	-52.866900	0.227889	0.000000	-0.977191	22.119100	-1.176640	8.813310
0.165000	-0.046541	265.084000	52.556200	0.211732	0.000000	-1.431130	-19.846800	-0.814602	3.071350	-3.303000	296.269000	-53.313400	0.227895	0.000000	-0.977919	22.228800	-1.189470	8.790600
0.170000	-0.610437	265.435000	52.465400	0.211313	0.000000	-1.431500	-19.774600	-0.846307	2.962020	-2.624840	298.724000	-53.534400	0.227536	0.000000	-0.977950	22.414300	-1.182990	8.737100
0.175000	-0.247529	266.010000	53.090400	0.212088	0.000000	-1.430570	-20.065200	-0.772008	3.193300	-3.018880	296.722000	-53.012400	0.228165	0.000000	-0.977519	22.141500	-1.228820	8.883510
0.180000	0.099438	266.263000	52.511600	0.212266	0.000000	-1.431680	-19.789000	-0.729108	3.247760	-2.669140	296.922000	-53.574900	0.228318	0.000000	-0.977090	22.026100	-1.288230	8.949960
0.185000	-0.271477	265.688000	52.235500	0.210756	0.000000	-1.430020	-20.186100	-0.780786	2.818620	-2.877820	297.228000	-53.794400	0.227803	0.000000	-0.977587	22.198100	-1.260460	8.801420
0.190000	-0.315655	266.332000	52.240700	0.211381	0.000000	-1.430210	-20.186200	-0.732361	3.008660	-2.758750	297.166000	-53.490400	0.227970	0.000000	-0.978311	22.407000	-1.228460	8.839550
0.195000	-0.738302	265.926000	52.678400	0.211884	0.000000	-1.430750	-20.011500	-0.818106	3.133170	-2.204160	297.671000	-53.807300	0.228582	0.000000	-0.977694	22.255500	-1.149670	9.023760
0.200000	-0.602540	266.076000	52.927200	0.211763	0.000000	-1.429370	-20.390500	-0.748902	3.114010	-2.603050	298.336000	-53.754100	0.228116	0.000000	-0.977491	22.249300	-1.281500	8.926150
0.205000	-0.606923	266.162000	52.715000	0.212536	0.000000	-1.430670	-20.048900	-0.784413	3.321320	-2.980200	298.208000	-53.599500	0.227715	0.000000	-0.977560	22.263200	-1.184570	8.784660
0.210000	-0.688251	267.200000	52.006800	0.211567	0.000000	-1.430800	-20.092600	-0.751486	3.071590	-2.775660	297.814000	-53.628600	0.227470	0.000000	-0.977161	22.112900	-1.197810	8.698970
0.215000	-0.775131	267.550000	52.616600	0.211642	0.000000	-1.429940	-20.350100	-0.750779	3.099350	-2.440400	298.263000	-53.609400	0.227888	0.000000	-0.977655	22.290700	-1.246070	8.843310
0.220000	-0.719171	267.018000	52.275100	0.211957	0.000000	-1.429640	-20.390100	-0.725706	3.183920	-2.425280	297.555000	-53.394000	0.227872	0.000000	-0.978013	22.344200	-1.225590	8.813050
0.225000	-1.033040	265.619000	52.631900	0.211539	0.000000	-1.429650	-20.280500	-0.828157	3.036890	-2.823070	299.893000	-53.793800	0.227920	0.000000	-0.977447	22.353600	-1.189730	8.893370
0.230000	-0.682745	267.667000	52.972600	0.211388	0.000000	-1.430570	-20.190600	-0.943004	2.991110	-2.348270	296.586000	-53.354800	0.229115	0.000000	-0.978217	22.331900	-1.247700	9.170770
0.235000	-0.570577	267.902000	52.844300	0.212655	0.000000	-1.431190	-20.041000	-0.786613	3.375510	-2.509000	299.877000	-53.938700	0.228206	0.000000	-0.976858	22.172900	-1.223370	8.985220
0.240000	-0.067558	266.651000	52.886200	0.212351	0.000000	-1.428980	-20.536900	-0.776673	3.269810	-2.236840	297.236000	-53.397100	0.228318	0.000000	-0.978376	22.426000	-1.192630	8.933340
0.245000	-0.122056	269.402000	52.783400	0.211974	0.000000	-1.429790	-20.529900	-0.791719	3.196260	-2.005700	297.516000	-53.453100	0.228176	0.000000	-0.977816	22.278200	-1.190700	8.894280
0.250000	-0.260047	268.291000	52.466700	0.211895	0.000000	-1.430910	-20.146200	-0.705633	3.179220	-2.454020	299.996000	-53.395600	0.227502	0.000000	-0.977803	22.463900	-1.193110	8.756860
0.255000	0.077443	268.015000	52.936900	0.211337	0.000000	-1.430860	-20.138300	-0.799694	2.997780	-2.225840	298.856000	-53.580500	0.228081	0.000000	-0.977962	22.424600	-1.232410	8.912680
0.260000	-0.078995	268.676000	52.989800	0.211767	0.000000	-1.430910	-20.175200	-0.793937	3.129060	-2.183370	298.016000	-53.176000	0.228396	0.000000	-0.978172	22.423600	-1.200450	8.975430
0.265000	-0.190102	266.302000	53.121000	0.211571	0.000000	-1.430730	-20.045300	-0.714166	3.064430	-2.381920	299.022000	-53.375900	0.228226	0.000000	-0.978293	22.537600	-1.241510	8.962630
0.270000	-0.309431	268.197000	52.970700	0.211070	0.000000	-1.431130	-20.079000	-0.775646	2.936010	-2.429810	299.113000	-53.187800	0.228535	0.000000	-0.977886	22.423600	-1.292400	9.067330
0.275000	-0.373028	266.929000	52.813500	0.211198	0.000000	-1.430410	-20.176700	-0.820051	2.949400	-2.045720	298.676000	-53.086300	0.228763	0.000000	-0.978067	22.440600	-1.243990	9.110460
0.280000	-0.512192	268.530000	52.817200	0.212120	0.000000	-1.430410	-20.299000	-0.824482	3.225850	-2.619370	298.394000	-52.970500	0.228012	0.000000	-0.977860	22.363600	-1.280020	8.884100
0.285000	-0.733920	267.581000	53.380100	0.210934	0.000000	-1.430370	-20.236100	-0.736040	2.906520	-1.946540	296.980000	-53.439000	0.228186	0.000000	-0.977904	22.263600	-1.199440	8.883850
0.290000	-0.095834	266.809000	52.584000	0.211618	0.000000	-1.430350	-20.183000	-0.772618	3.069270	-2.360950	298.825000	-52.951200	0.228147	0.000000	-0.977981	22.428800	-1.186490	8.916800
0.295000	-0.648287	266.339000	52.673400	0.211179	0.000000	-1.429580	-20.352800	-0.755467	2.954250	-2.346550	298.451000	-53.345100	0.228641	0.000000	-0.977256	22.184900	-1.259420	9.077280
0.300000	-0.687433	268.159000	52.447500	0.211413	0.000000	-1.430910	-20.137000	-0.780294	3.035050	-2.170590	297.145000	-53.235900	0.228590	0.000000	-0.977699	22.218100	-1.284970	9.027390
0.305000	-0.846384	266.315000	52.939000	0.211835	0.000000	-1.429910	-20.262600	-0.743204	3.141590	-2.282190	296.462000	-53.003400	0.228182	0.000000	-0.978107	22.288700	-1.242380	8.874860
0.310000	-0.893397	265.244000	52.874200	0.212514	0.000000	-1.429640	-20.253300	-0.770585	3.311090	-2.461500	295.737000	-52.844400	0.228404	0.000000	-0.977560	22.074100	-1.185430	8.912870
